<svg width="1200" height="700" viewBox="0 0 1200 700" xmlns="http://www.w3.org/2000/svg">
  <defs>
    <linearGradient id="g" x1="0" y1="0" x2="1" y2="1">
      <stop offset="0%" stop-color="#111827"/>
      <stop offset="100%" stop-color="#0b1220"/>
    </linearGradient>
  </defs>
  <rect width="100%" height="100%" fill="url(#g)"/>
  <rect x="60" y="60" width="1080" height="580" rx="14" fill="#0f1629" stroke="#22304d"/>
  <rect x="60" y="60" width="1080" height="54" rx="14" fill="#121a2b"/>
  <circle cx="92" cy="87" r="6" fill="#ef4444"/>
  <circle cx="112" cy="87" r="6" fill="#f59e0b"/>
  <circle cx="132" cy="87" r="6" fill="#10b981"/>
  <text x="160" y="92" font-family="Inter, Segoe UI, Roboto, Arial" font-size="20" fill="#e2e8f0">QuietPatch Report</text>
  <g font-family="Inter, Segoe UI, Roboto, Arial" fill="#e2e8f0">
    <text x="100" y="150" font-size="28">Host Inventory</text>
    <rect x="100" y="170" width="480" height="38" rx="8" fill="#121a2b" stroke="#22304d"/>
    <rect x="100" y="216" width="480" height="38" rx="8" fill="#121a2b" stroke="#22304d"/>
    <rect x="100" y="262" width="480" height="38" rx="8" fill="#121a2b" stroke="#22304d"/>
    <text x="640" y="150" font-size="28">Findings</text>
    <rect x="640" y="170" width="480" height="60" rx="10" fill="#1f2937" stroke="#22304d"/>
    <text x="660" y="205" font-size="18" fill="#60a5fa">CVE-2024-12345</text>
    <text x="860" y="205" font-size="16" fill="#94a3b8">Critical • EPSS 0.91 • KEV</text>
    <rect x="640" y="240" width="480" height="60" rx="10" fill="#1f2937" stroke="#22304d"/>
    <text x="660" y="275" font-size="18" fill="#60a5fa">CVE-2023-6789</text>
    <text x="860" y="275" font-size="16" fill="#94a3b8">High • EPSS 0.42</text>
    <rect x="640" y="310" width="480" height="60" rx="10" fill="#1f2937" stroke="#22304d"/>
    <text x="660" y="345" font-size="18" fill="#60a5fa">CVE-2022-1111</text>
    <text x="860" y="345" font-size="16" fill="#94a3b8">Medium</text>
  </g>
  <g font-family="Inter, Segoe UI, Roboto, Arial" fill="#94a3b8">
    <text x="100" y="360" font-size="22">Suggested Remediation</text>
    <rect x="100" y="380" width="1020" height="52" rx="8" fill="#0f1629" stroke="#22304d"/>
    <text x="120" y="412" font-size="18" fill="#e2e8f0">brew upgrade example-app • apt-get install --only-upgrade package</text>
  </g>
  <text x="600" y="660" text-anchor="middle" font-family="Inter, Segoe UI, Roboto, Arial" font-size="16" fill="#94a3b8">Preview sample — actual report is interactive HTML</text>
</svg>
